<svg width="1260" height="1260" viewBox="0 0 1260 1260" fill="none" xmlns="http://www.w3.org/2000/svg">
<g filter="url(#filter0_d)">
<path d="M454.605 518.12V436.875L435.944 412.959V506.735L375.296 546.617L286.531 497.169V423.334L267.87 399.485V509.497L458.586 615.737V691.122L431.714 676.166V628.2L240.066 522.499V308.269L221.405 284.353V426.5L167.661 396.858V267.848L149 244V409.254L221.405 449.203V534.895L413.053 640.596V688.494L458.586 713.892V721.976H477.247V603.408L394.765 557.463L454.605 518.12Z" fill="#3D3D3D"/>
</g>
<g filter="url(#filter1_d)">
<path d="M804.395 518.12V436.875L823.056 412.959V506.735L883.704 546.617L972.469 497.169V423.334L991.13 399.485V509.497L800.414 615.737V691.122L827.286 676.166V628.2L1018.93 522.499V308.269L1037.6 284.353V426.5L1091.34 396.858V267.848L1110 244V409.254L1037.6 449.203V534.895L845.947 640.596V688.494L800.414 713.892V721.976H781.753V603.408L864.235 557.463L804.395 518.12Z" fill="#3D3D3D"/>
</g>
<ellipse cx="630" cy="812" rx="123" ry="143" fill="#3D3D3D"/>
<ellipse cx="629.5" cy="1140" rx="305.5" ry="120" fill="#3D3D3D"/>
<defs>
<filter id="filter0_d" x="145" y="244" width="781" height="738" filterUnits="userSpaceOnUse" color-interpolation-filters="sRGB">
<feFlood flood-opacity="0" result="BackgroundImageFix"/>
<feColorMatrix in="SourceAlpha" type="matrix" values="0 0 0 0 0 0 0 0 0 0 0 0 0 0 0 0 0 0 127 0"/>
<feOffset dy="4"/>
<feGaussianBlur stdDeviation="2"/>
<feColorMatrix type="matrix" values="0 0 0 0 0 0 0 0 0 0 0 0 0 0 0 0 0 0 0.25 0"/>
<feBlend mode="normal" in2="BackgroundImageFix" result="effect1_dropShadow"/>
<feBlend mode="normal" in="SourceGraphic" in2="effect1_dropShadow" result="shape"/>
</filter>
<filter id="filter1_d" x="333" y="244" width="781" height="738" filterUnits="userSpaceOnUse" color-interpolation-filters="sRGB">
<feFlood flood-opacity="0" result="BackgroundImageFix"/>
<feColorMatrix in="SourceAlpha" type="matrix" values="0 0 0 0 0 0 0 0 0 0 0 0 0 0 0 0 0 0 127 0"/>
<feOffset dy="4"/>
<feGaussianBlur stdDeviation="2"/>
<feColorMatrix type="matrix" values="0 0 0 0 0 0 0 0 0 0 0 0 0 0 0 0 0 0 0.25 0"/>
<feBlend mode="normal" in2="BackgroundImageFix" result="effect1_dropShadow"/>
<feBlend mode="normal" in="SourceGraphic" in2="effect1_dropShadow" result="shape"/>
</filter>
</defs>
</svg>
